TITLE ""
FILE "P1Q_t_1288-1297.mp3" MP3
  TRACK 01 AUDIO
    TITLE "P1Q_t_1288-1297_01"
    INDEX 01 00:00:00
  TRACK 02 AUDIO
    TITLE "P1Q_t_1288-1297_02"
    INDEX 01 00:00:10
  TRACK 03 AUDIO
    TITLE "P1Q_t_1288-1297_03"
    INDEX 01 00:01:39
  TRACK 04 AUDIO
    TITLE "P1Q_t_1288-1297_04"
    INDEX 01 00:01:61
  TRACK 05 AUDIO
    TITLE "P1Q_t_1288-1297_05"
    INDEX 01 00:04:55
  TRACK 06 AUDIO
    TITLE "P1Q_t_1288-1297_06"
    INDEX 01 00:05:04
  TRACK 07 AUDIO
    TITLE "P1Q_t_1288-1297_07"
    INDEX 01 00:09:46
  TRACK 08 AUDIO
    TITLE "P1Q_t_1288-1297_08"
    INDEX 01 00:10:19
  TRACK 09 AUDIO
    TITLE "P1Q_t_1288-1297_09"
    INDEX 01 00:11:47
  TRACK 10 AUDIO
    TITLE "P1Q_t_1288-1297_10"
    INDEX 01 00:11:69
  TRACK 11 AUDIO
    TITLE "P1Q_t_1288-1297_11"
    INDEX 01 00:13:17
  TRACK 12 AUDIO
    TITLE "P1Q_t_1288-1297_12"
    INDEX 01 00:13:36
  TRACK 13 AUDIO
    TITLE "P1Q_t_1288-1297_13"
    INDEX 01 00:18:55
  TRACK 14 AUDIO
    TITLE "P1Q_t_1288-1297_14"
    INDEX 01 00:19:25
  TRACK 15 AUDIO
    TITLE "P1Q_t_1288-1297_15"
    INDEX 01 00:20:48
  TRACK 16 AUDIO
    TITLE "P1Q_t_1288-1297_16"
    INDEX 01 00:20:70
  TRACK 17 AUDIO
    TITLE "P1Q_t_1288-1297_17"
    INDEX 01 00:23:33
  TRACK 18 AUDIO
    TITLE "P1Q_t_1288-1297_18"
    INDEX 01 00:23:52
  TRACK 19 AUDIO
    TITLE "P1Q_t_1288-1297_19"
    INDEX 01 00:27:44
  TRACK 20 AUDIO
    TITLE "P1Q_t_1288-1297_20"
    INDEX 01 00:28:16
  TRACK 21 AUDIO
    TITLE "P1Q_t_1288-1297_21"
    INDEX 01 00:29:41
  TRACK 22 AUDIO
    TITLE "P1Q_t_1288-1297_22"
    INDEX 01 00:29:61
  TRACK 23 AUDIO
    TITLE "P1Q_t_1288-1297_23"
    INDEX 01 00:34:23
  TRACK 24 AUDIO
    TITLE "P1Q_t_1288-1297_24"
    INDEX 01 00:34:43
  TRACK 25 AUDIO
    TITLE "P1Q_t_1288-1297_25"
    INDEX 01 00:39:42
  TRACK 26 AUDIO
    TITLE "P1Q_t_1288-1297_26"
    INDEX 01 00:40:12
  TRACK 27 AUDIO
    TITLE "P1Q_t_1288-1297_27"
    INDEX 01 00:41:27
  TRACK 28 AUDIO
    TITLE "P1Q_t_1288-1297_28"
    INDEX 01 00:41:46
  TRACK 29 AUDIO
    TITLE "P1Q_t_1288-1297_29"
    INDEX 01 00:46:03
  TRACK 30 AUDIO
    TITLE "P1Q_t_1288-1297_30"
    INDEX 01 00:46:22
  TRACK 31 AUDIO
    TITLE "P1Q_t_1288-1297_31"
    INDEX 01 00:50:67
  TRACK 32 AUDIO
    TITLE "P1Q_t_1288-1297_32"
    INDEX 01 00:51:35
  TRACK 33 AUDIO
    TITLE "P1Q_t_1288-1297_33"
    INDEX 01 00:52:44
  TRACK 34 AUDIO
    TITLE "P1Q_t_1288-1297_34"
    INDEX 01 00:52:66
  TRACK 35 AUDIO
    TITLE "P1Q_t_1288-1297_35"
    INDEX 01 00:54:08
  TRACK 36 AUDIO
    TITLE "P1Q_t_1288-1297_36"
    INDEX 01 00:54:28
  TRACK 37 AUDIO
    TITLE "P1Q_t_1288-1297_37"
    INDEX 01 00:58:16
  TRACK 38 AUDIO
    TITLE "P1Q_t_1288-1297_38"
    INDEX 01 00:58:61
  TRACK 39 AUDIO
    TITLE "P1Q_t_1288-1297_39"
    INDEX 01 01:00:12
  TRACK 40 AUDIO
    TITLE "P1Q_t_1288-1297_40"
    INDEX 01 01:00:34
  TRACK 41 AUDIO
    TITLE "P1Q_t_1288-1297_41"
    INDEX 01 01:02:70
  TRACK 42 AUDIO
    TITLE "P1Q_t_1288-1297_42"
    INDEX 01 01:03:15
  TRACK 43 AUDIO
    TITLE "P1Q_t_1288-1297_43"
    INDEX 01 01:07:65
  TRACK 44 AUDIO
    TITLE "P1Q_t_1288-1297_44"
    INDEX 01 01:08:36
  TRACK 45 AUDIO
    TITLE "P1Q_t_1288-1297_45"
    INDEX 01 01:09:35
  TRACK 46 AUDIO
    TITLE "P1Q_t_1288-1297_46"
    INDEX 01 01:09:60
  TRACK 47 AUDIO
    TITLE "P1Q_t_1288-1297_47"
    INDEX 01 01:13:35
  TRACK 48 AUDIO
    TITLE "P1Q_t_1288-1297_48"
    INDEX 01 01:13:54
  TRACK 49 AUDIO
    TITLE "P1Q_t_1288-1297_49"
    INDEX 01 01:18:48
  TRACK 50 AUDIO
    TITLE "P1Q_t_1288-1297_50"
    INDEX 01 01:19:18
  TRACK 51 AUDIO
    TITLE "P1Q_t_1288-1297_51"
    INDEX 01 01:20:39
  TRACK 52 AUDIO
    TITLE "P1Q_t_1288-1297_52"
    INDEX 01 01:20:60
  TRACK 53 AUDIO
    TITLE "P1Q_t_1288-1297_53"
    INDEX 01 01:23:51
  TRACK 54 AUDIO
    TITLE "P1Q_t_1288-1297_54"
    INDEX 01 01:23:70
  TRACK 55 AUDIO
    TITLE "P1Q_t_1288-1297_55"
    INDEX 01 01:27:58
  TRACK 56 AUDIO
    TITLE "P1Q_t_1288-1297_56"
    INDEX 01 01:28:30
  TRACK 57 AUDIO
    TITLE "P1Q_t_1288-1297_57"
    INDEX 01 01:29:49
  TRACK 58 AUDIO
    TITLE "P1Q_t_1288-1297_58"
    INDEX 01 01:29:71
  TRACK 59 AUDIO
    TITLE "P1Q_t_1288-1297_59"
    INDEX 01 01:32:46
  TRACK 60 AUDIO
    TITLE "P1Q_t_1288-1297_60"
    INDEX 01 01:32:63
  TRACK 61 AUDIO
    TITLE "P1Q_t_1288-1297_61"
    INDEX 01 01:37:10
